<?xml version="1.0" encoding="UTF-8" standalone="no"?>
<svg
   xmlns:dc="http://purl.org/dc/elements/1.1/"
   xmlns:cc="http://creativecommons.org/ns#"
   xmlns:rdf="http://www.w3.org/1999/02/22-rdf-syntax-ns#"
   xmlns:svg="http://www.w3.org/2000/svg"
   xmlns="http://www.w3.org/2000/svg"
   xmlns:sodipodi="http://sodipodi.sourceforge.net/DTD/sodipodi-0.dtd"
   xmlns:inkscape="http://www.inkscape.org/namespaces/inkscape"
   version="1.1"
   x="0px"
   y="0px"
   viewBox="0 0 100 100"
   enable-background="new 0 0 100 100"
   xml:space="preserve"
   id="svg24"
   sodipodi:docname="noun_25205_cc.svg"
   width="100"
   height="100"
   inkscape:version="0.92.1 r15371"><metadata
     id="metadata30"><rdf:RDF><cc:Work
         rdf:about=""><dc:format>image/svg+xml</dc:format><dc:type
           rdf:resource="http://purl.org/dc/dcmitype/StillImage" /><dc:title></dc:title></cc:Work></rdf:RDF></metadata><defs
     id="defs28" /><sodipodi:namedview
     pagecolor="#ffffff"
     bordercolor="#666666"
     borderopacity="1"
     objecttolerance="10"
     gridtolerance="10"
     guidetolerance="10"
     inkscape:pageopacity="0"
     inkscape:pageshadow="2"
     inkscape:window-width="1212"
     inkscape:window-height="603"
     id="namedview26"
     showgrid="false"
     inkscape:zoom="1.888"
     inkscape:cx="-8.5275424"
     inkscape:cy="62.5"
     inkscape:window-x="0"
     inkscape:window-y="27"
     inkscape:window-maximized="0"
     inkscape:current-layer="svg24" /><path
     d="m 90.498,41.506 c 0,3.854 -2.776,6.979 -6.198,6.979 H 14.695 c -3.423,0 -6.198,-3.125 -6.198,-6.979 v 0 c 0,-3.854 2.775,-6.979 6.198,-6.979 H 84.3 c 3.422,0 6.198,3.125 6.198,6.979 z"
     id="path2"
     inkscape:connector-curvature="0"
     style="fill:#000000" /><g
     id="g8"
     transform="translate(0,1)"><line
       x1="10.104"
       y1="54.543999"
       x2="89.927002"
       y2="54.543999"
       id="line4"
       style="fill:#000000" /><path
       d="M 89.927,56.62 H 10.104 c -1.146,0 -2.073,-0.928 -2.073,-2.076 0,-1.146 0.928,-2.073 2.073,-2.073 h 79.823 c 1.146,0 2.073,0.928 2.073,2.073 0,1.148 -0.928,2.076 -2.073,2.076 z"
       id="path6"
       inkscape:connector-curvature="0"
       style="fill:#000000" /></g><path
     d="m 87.132,64.476 c -1.003,-0.559 -2.261,-0.21 -2.829,0.788 -1.446,2.564 -5.464,2.564 -6.91,0 -1.448,-2.562 -4.157,-4.154 -7.069,-4.154 -2.913,0 -5.622,1.593 -7.07,4.154 -0.002,0.004 -0.003,0.009 -0.006,0.013 -1.455,2.551 -5.458,2.547 -6.903,-0.013 -0.011,-0.02 -0.026,-0.035 -0.038,-0.054 -1.456,-2.531 -4.144,-4.101 -7.035,-4.101 -2.889,0 -5.577,1.569 -7.033,4.102 -0.011,0.019 -0.026,0.033 -0.038,0.053 -1.442,2.564 -5.455,2.569 -6.906,0 -0.011,-0.02 -0.027,-0.035 -0.039,-0.055 -1.456,-2.531 -4.143,-4.1 -7.035,-4.1 -2.896,0 -5.59,1.576 -7.043,4.118 -0.008,0.013 -0.018,0.022 -0.026,0.036 -1.443,2.564 -5.459,2.569 -6.907,0 -0.565,-0.998 -1.829,-1.347 -2.829,-0.788 -0.995,0.565 -1.35,1.831 -0.786,2.829 1.448,2.562 4.157,4.154 7.067,4.154 2.913,0 5.622,-1.593 7.07,-4.154 0.002,-0.004 0.003,-0.009 0.005,-0.013 1.459,-2.545 5.453,-2.538 6.903,0.004 0.002,0.003 0.002,0.006 0.004,0.009 1.448,2.562 4.157,4.154 7.067,4.154 2.913,0 5.622,-1.593 7.07,-4.154 0.002,-0.004 0.003,-0.009 0.005,-0.013 1.458,-2.543 5.448,-2.538 6.9,0 0.003,0.004 0.004,0.009 0.006,0.013 1.449,2.562 4.158,4.154 7.07,4.154 2.888,0 5.574,-1.568 7.03,-4.099 0.013,-0.02 0.028,-0.035 0.04,-0.056 1.446,-2.564 5.464,-2.564 6.909,0 1.448,2.562 4.157,4.154 7.07,4.154 2.913,0 5.622,-1.593 7.07,-4.154 0.565,-0.996 0.214,-2.262 -0.784,-2.827 z"
     id="path10"
     inkscape:connector-curvature="0"
     style="fill:#000000" /><g
     id="g14"
     transform="translate(0,1)"><path
       d="m 9.867,74.944 c 2.83,7.467 16.278,13.123 32.479,13.123 h 15.022 c 16.2,0 29.651,-5.656 32.479,-13.123 z"
       id="path12"
       inkscape:connector-curvature="0"
       style="fill:#000000" /></g><g
     id="g18"
     transform="translate(0,1)"><path
       d="m 58.352,11.238 c 0.165,0.379 0.097,0.835 -0.214,1.146 l -2.62,2.62 c -0.201,0.204 -0.467,0.307 -0.732,0.307 -0.265,0 -0.531,-0.103 -0.735,-0.307 -0.404,-0.404 -0.404,-1.062 0,-1.467 l 2.314,-2.314 H 51.94 c 0.174,0.382 0.11,0.846 -0.204,1.161 l -2.62,2.62 c -0.201,0.204 -0.467,0.307 -0.732,0.307 -0.265,0 -0.531,-0.103 -0.734,-0.307 -0.405,-0.404 -0.405,-1.062 0,-1.467 l 2.314,-2.314 h -4.82 c 0.174,0.382 0.111,0.846 -0.203,1.161 l -2.621,2.62 c -0.201,0.204 -0.467,0.307 -0.732,0.307 -0.265,0 -0.53,-0.103 -0.734,-0.307 -0.405,-0.404 -0.405,-1.062 0,-1.467 l 2.314,-2.314 h -0.82 c -16.2,0 -29.648,8.036 -32.479,18.628 H 89.848 C 87.077,19.474 74.109,11.556 58.352,11.238 Z m -19.99,7.022 -2.618,2.62 c -0.203,0.204 -0.469,0.306 -0.734,0.306 -0.265,0 -0.531,-0.102 -0.732,-0.306 -0.405,-0.405 -0.405,-1.062 0,-1.467 l 2.618,-2.621 c 0.407,-0.404 1.062,-0.404 1.467,0 0.408,0.406 0.408,1.063 -10e-4,1.468 z m 6.416,0 -2.621,2.62 c -0.203,0.204 -0.469,0.306 -0.734,0.306 -0.265,0 -0.531,-0.102 -0.732,-0.306 -0.405,-0.405 -0.405,-1.062 0,-1.467 l 2.62,-2.621 c 0.405,-0.404 1.06,-0.404 1.468,0 0.404,0.406 0.404,1.063 -0.001,1.468 z m 7.326,0 -2.621,2.62 c -0.204,0.204 -0.469,0.306 -0.734,0.306 -0.265,0 -0.531,-0.102 -0.732,-0.306 -0.405,-0.405 -0.405,-1.062 0,-1.467 l 2.62,-2.621 c 0.405,-0.404 1.062,-0.404 1.468,0 0.403,0.406 0.403,1.063 -10e-4,1.468 z m 7.287,0 -2.621,2.62 c -0.201,0.204 -0.466,0.306 -0.731,0.306 -0.265,0 -0.531,-0.102 -0.735,-0.306 -0.405,-0.405 -0.405,-1.062 0,-1.467 l 2.62,-2.621 c 0.405,-0.404 1.062,-0.404 1.468,0 0.404,0.406 0.404,1.063 -0.001,1.468 z"
       id="path16"
       inkscape:connector-curvature="0"
       style="fill:#000000" /></g></svg>