<?xml version="1.0" encoding="UTF-8" standalone="no"?>
<svg
   xmlns:dc="http://purl.org/dc/elements/1.1/"
   xmlns:cc="http://creativecommons.org/ns#"
   xmlns:rdf="http://www.w3.org/1999/02/22-rdf-syntax-ns#"
   xmlns:svg="http://www.w3.org/2000/svg"
   xmlns="http://www.w3.org/2000/svg"
   xmlns:sodipodi="http://sodipodi.sourceforge.net/DTD/sodipodi-0.dtd"
   xmlns:inkscape="http://www.inkscape.org/namespaces/inkscape"
   version="1.1"
   x="0px"
   y="0px"
   viewBox="0 0 100 125"
   enable-background="new 0 0 100 100"
   xml:space="preserve"
   id="svg24"
   sodipodi:docname="noun_25205_cc.svg"
   inkscape:version="0.92.1 r15371"><metadata
     id="metadata30"><rdf:RDF><cc:Work
         rdf:about=""><dc:format>image/svg+xml</dc:format><dc:type
           rdf:resource="http://purl.org/dc/dcmitype/StillImage" /></cc:Work></rdf:RDF></metadata><defs
     id="defs28" /><sodipodi:namedview
     pagecolor="#ffffff"
     bordercolor="#666666"
     borderopacity="1"
     objecttolerance="10"
     gridtolerance="10"
     guidetolerance="10"
     inkscape:pageopacity="0"
     inkscape:pageshadow="2"
     inkscape:window-width="1212"
     inkscape:window-height="603"
     id="namedview26"
     showgrid="false"
     inkscape:zoom="1.888"
     inkscape:cx="-8.5275424"
     inkscape:cy="62.5"
     inkscape:window-x="0"
     inkscape:window-y="27"
     inkscape:window-maximized="0"
     inkscape:current-layer="svg24" /><path
     fill="#000000"
     d="M90.498,40.506c0,3.854-2.776,6.979-6.198,6.979H14.695c-3.423,0-6.198-3.125-6.198-6.979l0,0  c0-3.854,2.775-6.979,6.198-6.979H84.3C87.722,33.527,90.498,36.652,90.498,40.506L90.498,40.506z"
     id="path2" /><g
     id="g8"><line
       fill="#000000"
       x1="10.104"
       y1="54.544"
       x2="89.927"
       y2="54.544"
       id="line4" /><path
       fill="#000000"
       d="M89.927,56.62H10.104c-1.146,0-2.073-0.928-2.073-2.076c0-1.146,0.928-2.073,2.073-2.073h79.823   c1.146,0,2.073,0.928,2.073,2.073C92,55.692,91.072,56.62,89.927,56.62z"
       id="path6" /></g><path
     fill="#000000"
     d="M87.132,63.476c-1.003-0.559-2.261-0.21-2.829,0.788c-1.446,2.564-5.464,2.564-6.91,0  c-1.448-2.562-4.157-4.154-7.069-4.154c-2.913,0-5.622,1.593-7.07,4.154c-0.002,0.004-0.003,0.009-0.006,0.013  c-1.455,2.551-5.458,2.547-6.903-0.013c-0.011-0.02-0.026-0.035-0.038-0.054c-1.456-2.531-4.144-4.101-7.035-4.101  c-2.889,0-5.577,1.569-7.033,4.102c-0.011,0.019-0.026,0.033-0.038,0.053c-1.442,2.564-5.455,2.569-6.906,0  c-0.011-0.02-0.027-0.035-0.039-0.055c-1.456-2.531-4.143-4.1-7.035-4.1c-2.896,0-5.59,1.576-7.043,4.118  c-0.008,0.013-0.018,0.022-0.026,0.036c-1.443,2.564-5.459,2.569-6.907,0c-0.565-0.998-1.829-1.347-2.829-0.788  c-0.995,0.565-1.35,1.831-0.786,2.829c1.448,2.562,4.157,4.154,7.067,4.154c2.913,0,5.622-1.593,7.07-4.154  c0.002-0.004,0.003-0.009,0.005-0.013c1.459-2.545,5.453-2.538,6.903,0.004c0.002,0.003,0.002,0.006,0.004,0.009  c1.448,2.562,4.157,4.154,7.067,4.154c2.913,0,5.622-1.593,7.07-4.154c0.002-0.004,0.003-0.009,0.005-0.013  c1.458-2.543,5.448-2.538,6.9,0c0.003,0.004,0.004,0.009,0.006,0.013c1.449,2.562,4.158,4.154,7.07,4.154  c2.888,0,5.574-1.568,7.03-4.099c0.013-0.02,0.028-0.035,0.04-0.056c1.446-2.564,5.464-2.564,6.909,0  c1.448,2.562,4.157,4.154,7.07,4.154s5.622-1.593,7.07-4.154C88.481,65.307,88.13,64.041,87.132,63.476z"
     id="path10" /><g
     id="g14"><path
       fill="#000000"
       d="M9.867,74.944c2.83,7.467,16.278,13.123,32.479,13.123h15.022c16.2,0,29.651-5.656,32.479-13.123H9.867z"
       id="path12" /></g><g
     id="g18"><path
       fill="#000000"
       d="M58.352,11.238c0.165,0.379,0.097,0.835-0.214,1.146l-2.62,2.62c-0.201,0.204-0.467,0.307-0.732,0.307   s-0.531-0.103-0.735-0.307c-0.404-0.404-0.404-1.062,0-1.467l2.314-2.314h-4.425c0.174,0.382,0.11,0.846-0.204,1.161l-2.62,2.62   c-0.201,0.204-0.467,0.307-0.732,0.307s-0.531-0.103-0.734-0.307c-0.405-0.404-0.405-1.062,0-1.467l2.314-2.314h-4.82   c0.174,0.382,0.111,0.846-0.203,1.161l-2.621,2.62c-0.201,0.204-0.467,0.307-0.732,0.307s-0.53-0.103-0.734-0.307   c-0.405-0.404-0.405-1.062,0-1.467l2.314-2.314h-0.82c-16.2,0-29.648,8.036-32.479,18.628h79.979   C87.077,19.474,74.109,11.556,58.352,11.238z M38.362,18.26l-2.618,2.62c-0.203,0.204-0.469,0.306-0.734,0.306   s-0.531-0.102-0.732-0.306c-0.405-0.405-0.405-1.062,0-1.467l2.618-2.621c0.407-0.404,1.062-0.404,1.467,0   C38.771,17.198,38.771,17.855,38.362,18.26z M44.778,18.26l-2.621,2.62c-0.203,0.204-0.469,0.306-0.734,0.306   s-0.531-0.102-0.732-0.306c-0.405-0.405-0.405-1.062,0-1.467l2.62-2.621c0.405-0.404,1.06-0.404,1.468,0   C45.183,17.198,45.183,17.855,44.778,18.26z M52.104,18.26l-2.621,2.62c-0.204,0.204-0.469,0.306-0.734,0.306   s-0.531-0.102-0.732-0.306c-0.405-0.405-0.405-1.062,0-1.467l2.62-2.621c0.405-0.404,1.062-0.404,1.468,0   C52.508,17.198,52.508,17.855,52.104,18.26z M59.391,18.26l-2.621,2.62c-0.201,0.204-0.466,0.306-0.731,0.306   s-0.531-0.102-0.735-0.306c-0.405-0.405-0.405-1.062,0-1.467l2.62-2.621c0.405-0.404,1.062-0.404,1.468,0   C59.796,17.198,59.796,17.855,59.391,18.26z"
       id="path16" /></g></svg>